<svg focusable='false' aria-hidden='true' id="Layer_1" xmlns="http://www.w3.org/2000/svg" viewBox="0 0 23.8 23.9"><style>.st0{fill:#666766}</style><path class="st0" d="M9 6.7l5.2-5.2c1-1 2.4-1.5 3.9-1.5 1.5.1 2.8.7 3.9 1.8 2.3 2.2 2.4 5.7.3 8l-3.7 3.7V9.7l1.8-1.9c1-1 .9-2.9-.3-4.1-.6-.6-1.4-.9-2.1-1-.7 0-1.4.2-1.9.7L9 10.5V6.7zM15.4 16.6l-5.8 5.8c-1 1-2.4 1.5-3.9 1.4-1.5-.1-2.8-.7-3.9-1.8-2.2-2.2-2.4-5.8-.4-7.8L5.6 10v3.9l-2.2 2.3c-1 1-.9 2.9.3 4 .6.6 1.4.9 2.1 1 .7 0 1.4-.2 1.9-.7l2.8-2.8 5-5"/></svg>