<!-- This image is Copyright John Deere 2018 -->
<svg xmlns="http://www.w3.org/2000/svg" width="192" height="48" viewBox="0 0 192 48" shape-rendering="geometricPrecision">
    <defs>
        <style>
            g {
                display: none;
            }
            g:target {
                display: inline;
            }
        </style>
    </defs>
    
    <!-- Financial Green -->
    <g id="green" fill="none" fill-rule="nonzero">
        <path fill="#367C2B" d="M36.8335448,3.89066667 C31.7978483,1.40133333 26.0007724,0 19.9627034,0 C13.9060966,0 8.11564138,1.412 3.06802759,3.91333333 C1.2326884,8.38053827 0.290023631,13.1682773 0.293958621,18.0026667 C0.293958621,22.9786667 1.27911724,27.732 3.06537931,32.0853333 C8.11564138,34.5906667 13.9060966,36 19.9627034,36 C26.0007724,36 31.8004966,34.596 36.8361931,32.1093333 C38.6778324,27.6376644 39.6237313,22.8436077 39.619531,18.0026667 C39.619531,13.016 38.6304,8.252 36.8335448,3.89066667"/>
        <path fill="#FFDE00" fill-rule="nonzero" d="M14.5946483,13.9186667 C13.7347752,15.6510121 13.1907527,17.5247336 12.988469,19.4506667 C12.9222621,19.4586667 12.5078069,19.4946667 12.5078069,19.4946667 C10.8129103,19.6506667 9.05975172,19.784 7.35955862,20.4453333 L7.47873103,21.1373333 C10.2514759,24.6093333 14.4516414,26.7026667 14.4940138,26.7213333 L14.5906759,26.6173333 L13.6836414,25.1613333 C13.4678069,24.9973333 12.8997517,24.8666667 12.8825379,24.864 C10.991669,24.2293333 9.66488276,21.74 9.4464,21.312 C11.0035862,21.3066667 12.3727448,21.7626667 13.6968828,22.2026667 C14.5708138,22.4946667 15.3944276,22.768 16.2471724,22.9093333 C17.7460966,23.1506667 19.3152,22.8666667 20.726731,22.6906667 C21.8438834,22.5642054 22.970333,22.5432251 24.0913655,22.628 C24.2237793,22.792 25.3890207,24.2106667 26.4986483,24.7946667 C27.8916414,25.5306667 31.9501241,26.7493333 32.150069,26.82 C32.2334897,26.8986667 33.7946483,28.4813333 34.7559724,30.3146667 C30.2102069,32.4213333 25.0963862,33.536 19.9613793,33.536 C14.813131,33.536 9.68209655,32.4133333 5.11911724,30.284 C3.61342932,26.3662108 2.84340805,22.2009215 2.84822069,18 C2.84822069,13.7786667 3.61357241,9.64266667 5.12176552,5.716 C9.68209655,3.588 14.813131,2.464 19.9613793,2.464 C25.1083034,2.464 30.2340414,3.58266667 34.7837793,5.69733333 C36.2929469,9.62083707 37.0652183,13.7924834 37.0612966,18 C37.0668766,21.8371952 36.4247976,25.6474404 35.1624828,29.268 C33.7125517,26.7373333 33.1259586,25.972 33.1259586,25.972 C33.1074207,25.9586667 31.0801655,24.8933333 30.5769931,24.4586667 C30.1771034,24.1093333 29.9864276,23.3986667 29.7652966,22.576 C29.4594207,21.4346667 29.0754207,20.024 27.9763862,18.8573333 L29.1972414,18.3546667 C28.8582621,15.984 26.0696276,14.4453333 26.0418207,14.4266667 L25.8842483,14.5026667 C26.9488552,15.844 27.2587034,16.9893333 27.2587034,17.6853333 C27.2587034,18.0413333 27.2030897,18.2786667 27.177931,18.3746667 C26.8588138,18.2573333 24.7997793,17.588 20.1189517,17.7626667 C19.4317241,17.7893333 18.4492138,17.7546667 17.8599724,17.1826667 C17.5276138,16.8573333 17.3607724,16.3933333 17.3607724,15.7973333 L17.3607724,15.792 C17.3634207,14.156 18.048,11.9533333 18.1459862,11.64 L19.3681655,11.792 C20.8207448,10.976 21.3901241,10.276 21.4695724,10.1693333 L21.4020414,10.096 C20.1613241,10.2546667 18.5366069,10.5853333 18.5366069,10.5853333 C18.6438621,10.3 18.9735724,9.35733333 18.9735724,8.292 C18.9735724,7.14266667 18.5908966,5.852 17.1383172,5.10133333 L16.9833931,5.18 C16.9966345,5.19066667 17.8308414,6.10133333 17.8308414,7.35466667 C17.8291056,7.7365788 17.7497969,8.11409608 17.5977931,8.464 C17.1250759,8.26266667 16.9277793,8.24533333 16.3597241,8.22933333 C16.0829793,7.24666667 15.235531,6.416 14.0782345,5.99466667 L13.9365517,6.07866667 C13.9497931,6.088 15.1746207,6.96666667 15.2461241,8.26 C14.6277517,8.312 14.3655724,8.372 13.6041931,8.60666667 C13.2850759,8.07066667 12.5568,7.68533333 11.6457931,7.576 L11.5266207,7.66666667 C11.5372138,7.672 12.6124138,8.04666667 12.854731,8.87733333 C12.2022948,9.19420474 11.5882644,9.58567192 11.0247724,10.044 L11.0724414,10.224 C13.8624,9.13333333 16.4683034,8.812 17.1316966,9.60933333 C17.2442483,9.74266667 17.3011862,9.90133333 17.3011862,10.0853333 C17.3011862,10.32 17.212469,10.588 17.0363586,10.8986667 C15.2907103,11.2975698 13.5727491,11.8106582 11.8934069,12.4346667 L12.1185103,13.1533333 C12.1185103,13.1533333 13.8266483,13.5026667 14.4741517,13.6373333 C14.4741517,13.6373333 14.716469,13.672 14.5946483,13.9186667 Z M35.6338759,4.956 C30.9305379,2.72666667 25.5492414,1.47333333 19.9613793,1.47333333 C14.3602759,1.47333333 8.98692414,2.73466667 4.27166897,4.976 C2.63800533,9.12457363 1.80177814,13.5478555 1.80744828,18.0106667 C1.80744828,22.588 2.67608276,26.976 4.2624,31.0213333 C8.97765517,33.268 14.3549793,34.528 19.9613793,34.528 C25.5532138,34.528 30.9384828,33.276 35.644469,31.0413333 C37.2723718,26.8926454 38.1066637,22.4714516 38.1033931,18.0106667 C38.1033931,13.4093333 37.2281379,9.01066667 35.6338759,4.956 Z"/>
        <path fill="#367C2B" fill-rule="nonzero" d="M49.4459586,23.1146667 C49.4459586,23.1146667 51.1633655,23.74 53.0860138,23.74 C55.1357793,23.74 56.4135724,23.456 57.1272828,22.724 C57.7204966,22.1226667 57.9561931,21.1173333 57.9257379,19.6333333 L57.9257379,9.76 L60.9540414,9.76 L60.9540414,20.0573333 C60.9103448,24.62 58.722869,26.568 53.6381793,26.568 C51.1660138,26.568 49.4459586,26.1693333 49.4459586,26.1693333 L49.4459586,23.1146667 Z M75.2494345,19.6066667 C75.2494345,16.9506667 73.5227586,15.424 70.5103448,15.424 C67.497931,15.424 65.7646345,16.9506667 65.7646345,19.6066667 C65.7646345,23.312 68.7412966,23.8666667 70.5103448,23.8666667 C72.2807172,23.8666667 75.2494345,23.312 75.2494345,19.6066667 Z M70.5103448,12.7186667 C75.3725793,12.7186667 78.2764138,15.3493333 78.2764138,19.7466667 C78.2764138,22.8906667 76.2412138,26.568 70.5103448,26.568 C64.7794759,26.568 62.7469241,22.8906667 62.7469241,19.7466667 C62.7469241,15.3493333 65.6481103,12.7186667 70.5103448,12.7186667 Z M90.9656276,13.0333333 L90.9656276,18.2946667 L83.0936276,18.2946667 L83.0936276,13.0333333 L80.0706207,13.0333333 L80.0706207,26.2546667 L83.0936276,26.2546667 L83.0936276,21 L90.9656276,21 L90.9656276,26.2546667 L93.9886345,26.2546667 L93.9886345,13.0333333 L90.9656276,13.0333333 Z M139.053021,23.552 L139.053021,21 L146.029903,21 L146.029903,18.2946667 L139.053021,18.2946667 L139.053021,15.74 L148.075697,15.74 L148.075697,13.0333333 L136.02869,13.0333333 L136.02869,26.2546667 L148.075697,26.2546667 L148.075697,23.552 L139.053021,23.552 Z M153.119338,23.552 L153.119338,21 L160.101517,21 L160.101517,18.2946667 L153.119338,18.2946667 L153.119338,15.74 L162.142014,15.74 L162.142014,13.0333333 L150.091034,13.0333333 L150.091034,26.2546667 L162.142014,26.2546667 L162.142014,23.552 L153.119338,23.552 Z M182.451641,23.552 L182.451641,21 L189.439117,21 L189.439117,18.2946667 L182.451641,18.2946667 L182.451641,15.74 L191.479614,15.74 L191.479614,13.0333333 L179.433931,13.0333333 L179.433931,26.2546667 L191.479614,26.2546667 L191.479614,23.552 L182.451641,23.552 Z M121.402262,9.74266667 L117.905214,9.74266667 L117.905214,26.2546667 L125.215779,26.2546667 C132.052303,26.2546667 134.478124,21.8773333 134.478124,18.12 C134.478124,12.88 131.011531,9.74266667 125.215779,9.74266667 L121.402262,9.74266667 Z M125.215779,12.4733333 C129.168331,12.4733333 131.433931,14.4693333 131.433931,17.9506667 C131.433931,22.8066667 127.535669,23.5306667 125.215779,23.5306667 L120.941462,23.5306667 L120.941462,12.4733333 L125.215779,12.4733333 Z M167.348524,18.7133333 L167.348524,15.74 L172.878124,15.74 C173.940083,15.74 174.55051,16.276 174.55051,17.2133333 C174.55051,18.5213333 173.500469,18.7213333 172.878124,18.7213333 L167.348524,18.7133333 Z M174.240662,21.216 C176.534069,20.6586667 177.408,18.8693333 177.408,17.2786667 C177.408,14.6226667 175.65749,13.0333333 172.712607,13.0333333 L164.157352,13.0333333 L164.157352,26.2546667 L167.183007,26.2546667 L167.183007,21.4186667 L170.735669,21.4186667 L174.384993,26.2546667 L178.04491,26.2546667 L174.240662,21.216 Z M107.345214,26.2546667 L99.4785103,17.2426667 L99.4785103,26.2546667 L96.4528552,26.2546667 L96.4528552,13.0333333 L99.4520276,13.0333333 L107.345214,21.956 L107.345214,13.0333333 L110.373517,13.0333333 L110.373517,26.2546667 L107.345214,26.2546667 Z M50.7753931,33.3853333 L62.7283862,33.3853333 L62.7283862,34.8 L52.3577379,34.8 L52.3577379,38.9693333 L61.1063172,38.9693333 L61.1063172,40.3826667 L52.3577379,40.3826667 L52.3577379,46.5626667 L50.7753931,46.5626667 L50.7753931,33.3853333 Z M64.6934069,46.5626667 L66.2797241,46.5626667 L66.2797241,33.3853333 L64.6934069,33.3853333 L64.6934069,46.5626667 Z M69.2510897,33.3853333 L71.5008,33.3853333 L81.2398345,44.224 L81.2398345,33.3853333 L82.8248276,33.3853333 L82.8248276,46.5626667 L81.2398345,46.5626667 L70.7632552,34.8 L70.7632552,46.5626667 L69.2510897,46.5626667 L69.2510897,33.3853333 Z M95.6120276,41.724 L92.1004138,34.636 L88.5901241,41.724 L95.6120276,41.724 Z M91.1284966,33.3853333 L93.072331,33.3853333 L99.7883586,46.5626667 L98.006069,46.5626667 L96.3124966,43.1373333 L87.8697931,43.1373333 L86.1590069,46.5626667 L84.3952552,46.5626667 L91.1284966,33.3853333 Z M101.358786,33.3853333 L103.609821,33.3853333 L113.348855,44.224 L113.348855,33.3853333 L114.933848,33.3853333 L114.933848,46.5626667 L113.348855,46.5626667 L102.870952,34.8 L102.870952,46.5626667 L101.358786,46.5626667 L101.358786,33.3853333 Z M131.518676,43.0653333 C130.11509,45.8026667 127.683972,46.8906667 124.496772,46.8906667 C119.421352,46.8906667 117.025986,43.8253333 117.025986,40.0026667 C117.025986,35.4693333 120.068855,33.0573333 124.479559,33.0573333 C127.288055,33.0573333 130.150841,34.1453333 131.320055,36.828 L129.952221,37.464 C129.033269,35.3066667 126.999393,34.4013333 124.496772,34.4013333 C120.75211,34.4013333 118.648055,36.448 118.648055,40.2 C118.648055,43.2293333 120.680607,45.476 124.642428,45.476 C127.233766,45.476 129.033269,44.388 130.11509,42.3746667 L131.518676,43.0653333 Z M133.827972,46.5626667 L135.411641,46.5626667 L135.411641,33.3853333 L133.827972,33.3853333 L133.827972,46.5626667 Z M148.194869,41.724 L144.685903,34.636 L141.17429,41.724 L148.194869,41.724 Z M143.712662,33.3853333 L145.657821,33.3853333 L152.3712,46.5626667 L150.590234,46.5626667 L148.897986,43.1373333 L140.453959,43.1373333 L138.744497,46.5626667 L136.979421,46.5626667 L143.712662,33.3853333 Z M153.942952,33.3853333 L155.526621,33.3853333 L155.526621,45.148 L165.861517,45.148 L165.861517,46.5626667 L153.942952,46.5626667 L153.942952,33.3853333 Z"/>
    </g>

    <!-- Financial Black -->
    <g id="black" fill="none" fill-rule="nonzero">
        <path fill="#000" d="M36.8335448,3.89066667 C31.7978483,1.40133333 26.0007724,0 19.9627034,0 C13.9060966,0 8.11564138,1.412 3.06802759,3.91333333 C1.2326884,8.38053827 0.290023631,13.1682773 0.293958621,18.0026667 C0.293958621,22.9786667 1.27911724,27.732 3.06537931,32.0853333 C8.11564138,34.5906667 13.9060966,36 19.9627034,36 C26.0007724,36 31.8004966,34.596 36.8361931,32.1093333 C38.6778324,27.6376644 39.6237313,22.8436077 39.619531,18.0026667 C39.619531,13.016 38.6304,8.252 36.8335448,3.89066667"/>
        <path fill="#FFDE00" fill-rule="nonzero" d="M14.5946483,13.9186667 C13.7347752,15.6510121 13.1907527,17.5247336 12.988469,19.4506667 C12.9222621,19.4586667 12.5078069,19.4946667 12.5078069,19.4946667 C10.8129103,19.6506667 9.05975172,19.784 7.35955862,20.4453333 L7.47873103,21.1373333 C10.2514759,24.6093333 14.4516414,26.7026667 14.4940138,26.7213333 L14.5906759,26.6173333 L13.6836414,25.1613333 C13.4678069,24.9973333 12.8997517,24.8666667 12.8825379,24.864 C10.991669,24.2293333 9.66488276,21.74 9.4464,21.312 C11.0035862,21.3066667 12.3727448,21.7626667 13.6968828,22.2026667 C14.5708138,22.4946667 15.3944276,22.768 16.2471724,22.9093333 C17.7460966,23.1506667 19.3152,22.8666667 20.726731,22.6906667 C21.8438834,22.5642054 22.970333,22.5432251 24.0913655,22.628 C24.2237793,22.792 25.3890207,24.2106667 26.4986483,24.7946667 C27.8916414,25.5306667 31.9501241,26.7493333 32.150069,26.82 C32.2334897,26.8986667 33.7946483,28.4813333 34.7559724,30.3146667 C30.2102069,32.4213333 25.0963862,33.536 19.9613793,33.536 C14.813131,33.536 9.68209655,32.4133333 5.11911724,30.284 C3.61342932,26.3662108 2.84340805,22.2009215 2.84822069,18 C2.84822069,13.7786667 3.61357241,9.64266667 5.12176552,5.716 C9.68209655,3.588 14.813131,2.464 19.9613793,2.464 C25.1083034,2.464 30.2340414,3.58266667 34.7837793,5.69733333 C36.2929469,9.62083707 37.0652183,13.7924834 37.0612966,18 C37.0668766,21.8371952 36.4247976,25.6474404 35.1624828,29.268 C33.7125517,26.7373333 33.1259586,25.972 33.1259586,25.972 C33.1074207,25.9586667 31.0801655,24.8933333 30.5769931,24.4586667 C30.1771034,24.1093333 29.9864276,23.3986667 29.7652966,22.576 C29.4594207,21.4346667 29.0754207,20.024 27.9763862,18.8573333 L29.1972414,18.3546667 C28.8582621,15.984 26.0696276,14.4453333 26.0418207,14.4266667 L25.8842483,14.5026667 C26.9488552,15.844 27.2587034,16.9893333 27.2587034,17.6853333 C27.2587034,18.0413333 27.2030897,18.2786667 27.177931,18.3746667 C26.8588138,18.2573333 24.7997793,17.588 20.1189517,17.7626667 C19.4317241,17.7893333 18.4492138,17.7546667 17.8599724,17.1826667 C17.5276138,16.8573333 17.3607724,16.3933333 17.3607724,15.7973333 L17.3607724,15.792 C17.3634207,14.156 18.048,11.9533333 18.1459862,11.64 L19.3681655,11.792 C20.8207448,10.976 21.3901241,10.276 21.4695724,10.1693333 L21.4020414,10.096 C20.1613241,10.2546667 18.5366069,10.5853333 18.5366069,10.5853333 C18.6438621,10.3 18.9735724,9.35733333 18.9735724,8.292 C18.9735724,7.14266667 18.5908966,5.852 17.1383172,5.10133333 L16.9833931,5.18 C16.9966345,5.19066667 17.8308414,6.10133333 17.8308414,7.35466667 C17.8291056,7.7365788 17.7497969,8.11409608 17.5977931,8.464 C17.1250759,8.26266667 16.9277793,8.24533333 16.3597241,8.22933333 C16.0829793,7.24666667 15.235531,6.416 14.0782345,5.99466667 L13.9365517,6.07866667 C13.9497931,6.088 15.1746207,6.96666667 15.2461241,8.26 C14.6277517,8.312 14.3655724,8.372 13.6041931,8.60666667 C13.2850759,8.07066667 12.5568,7.68533333 11.6457931,7.576 L11.5266207,7.66666667 C11.5372138,7.672 12.6124138,8.04666667 12.854731,8.87733333 C12.2022948,9.19420474 11.5882644,9.58567192 11.0247724,10.044 L11.0724414,10.224 C13.8624,9.13333333 16.4683034,8.812 17.1316966,9.60933333 C17.2442483,9.74266667 17.3011862,9.90133333 17.3011862,10.0853333 C17.3011862,10.32 17.212469,10.588 17.0363586,10.8986667 C15.2907103,11.2975698 13.5727491,11.8106582 11.8934069,12.4346667 L12.1185103,13.1533333 C12.1185103,13.1533333 13.8266483,13.5026667 14.4741517,13.6373333 C14.4741517,13.6373333 14.716469,13.672 14.5946483,13.9186667 Z M35.6338759,4.956 C30.9305379,2.72666667 25.5492414,1.47333333 19.9613793,1.47333333 C14.3602759,1.47333333 8.98692414,2.73466667 4.27166897,4.976 C2.63800533,9.12457363 1.80177814,13.5478555 1.80744828,18.0106667 C1.80744828,22.588 2.67608276,26.976 4.2624,31.0213333 C8.97765517,33.268 14.3549793,34.528 19.9613793,34.528 C25.5532138,34.528 30.9384828,33.276 35.644469,31.0413333 C37.2723718,26.8926454 38.1066637,22.4714516 38.1033931,18.0106667 C38.1033931,13.4093333 37.2281379,9.01066667 35.6338759,4.956 Z"/>
        <path fill="#000" fill-rule="nonzero" d="M49.4459586,23.1146667 C49.4459586,23.1146667 51.1633655,23.74 53.0860138,23.74 C55.1357793,23.74 56.4135724,23.456 57.1272828,22.724 C57.7204966,22.1226667 57.9561931,21.1173333 57.9257379,19.6333333 L57.9257379,9.76 L60.9540414,9.76 L60.9540414,20.0573333 C60.9103448,24.62 58.722869,26.568 53.6381793,26.568 C51.1660138,26.568 49.4459586,26.1693333 49.4459586,26.1693333 L49.4459586,23.1146667 Z M75.2494345,19.6066667 C75.2494345,16.9506667 73.5227586,15.424 70.5103448,15.424 C67.497931,15.424 65.7646345,16.9506667 65.7646345,19.6066667 C65.7646345,23.312 68.7412966,23.8666667 70.5103448,23.8666667 C72.2807172,23.8666667 75.2494345,23.312 75.2494345,19.6066667 Z M70.5103448,12.7186667 C75.3725793,12.7186667 78.2764138,15.3493333 78.2764138,19.7466667 C78.2764138,22.8906667 76.2412138,26.568 70.5103448,26.568 C64.7794759,26.568 62.7469241,22.8906667 62.7469241,19.7466667 C62.7469241,15.3493333 65.6481103,12.7186667 70.5103448,12.7186667 Z M90.9656276,13.0333333 L90.9656276,18.2946667 L83.0936276,18.2946667 L83.0936276,13.0333333 L80.0706207,13.0333333 L80.0706207,26.2546667 L83.0936276,26.2546667 L83.0936276,21 L90.9656276,21 L90.9656276,26.2546667 L93.9886345,26.2546667 L93.9886345,13.0333333 L90.9656276,13.0333333 Z M139.053021,23.552 L139.053021,21 L146.029903,21 L146.029903,18.2946667 L139.053021,18.2946667 L139.053021,15.74 L148.075697,15.74 L148.075697,13.0333333 L136.02869,13.0333333 L136.02869,26.2546667 L148.075697,26.2546667 L148.075697,23.552 L139.053021,23.552 Z M153.119338,23.552 L153.119338,21 L160.101517,21 L160.101517,18.2946667 L153.119338,18.2946667 L153.119338,15.74 L162.142014,15.74 L162.142014,13.0333333 L150.091034,13.0333333 L150.091034,26.2546667 L162.142014,26.2546667 L162.142014,23.552 L153.119338,23.552 Z M182.451641,23.552 L182.451641,21 L189.439117,21 L189.439117,18.2946667 L182.451641,18.2946667 L182.451641,15.74 L191.479614,15.74 L191.479614,13.0333333 L179.433931,13.0333333 L179.433931,26.2546667 L191.479614,26.2546667 L191.479614,23.552 L182.451641,23.552 Z M121.402262,9.74266667 L117.905214,9.74266667 L117.905214,26.2546667 L125.215779,26.2546667 C132.052303,26.2546667 134.478124,21.8773333 134.478124,18.12 C134.478124,12.88 131.011531,9.74266667 125.215779,9.74266667 L121.402262,9.74266667 Z M125.215779,12.4733333 C129.168331,12.4733333 131.433931,14.4693333 131.433931,17.9506667 C131.433931,22.8066667 127.535669,23.5306667 125.215779,23.5306667 L120.941462,23.5306667 L120.941462,12.4733333 L125.215779,12.4733333 Z M167.348524,18.7133333 L167.348524,15.74 L172.878124,15.74 C173.940083,15.74 174.55051,16.276 174.55051,17.2133333 C174.55051,18.5213333 173.500469,18.7213333 172.878124,18.7213333 L167.348524,18.7133333 Z M174.240662,21.216 C176.534069,20.6586667 177.408,18.8693333 177.408,17.2786667 C177.408,14.6226667 175.65749,13.0333333 172.712607,13.0333333 L164.157352,13.0333333 L164.157352,26.2546667 L167.183007,26.2546667 L167.183007,21.4186667 L170.735669,21.4186667 L174.384993,26.2546667 L178.04491,26.2546667 L174.240662,21.216 Z M107.345214,26.2546667 L99.4785103,17.2426667 L99.4785103,26.2546667 L96.4528552,26.2546667 L96.4528552,13.0333333 L99.4520276,13.0333333 L107.345214,21.956 L107.345214,13.0333333 L110.373517,13.0333333 L110.373517,26.2546667 L107.345214,26.2546667 Z M50.7753931,33.3853333 L62.7283862,33.3853333 L62.7283862,34.8 L52.3577379,34.8 L52.3577379,38.9693333 L61.1063172,38.9693333 L61.1063172,40.3826667 L52.3577379,40.3826667 L52.3577379,46.5626667 L50.7753931,46.5626667 L50.7753931,33.3853333 Z M64.6934069,46.5626667 L66.2797241,46.5626667 L66.2797241,33.3853333 L64.6934069,33.3853333 L64.6934069,46.5626667 Z M69.2510897,33.3853333 L71.5008,33.3853333 L81.2398345,44.224 L81.2398345,33.3853333 L82.8248276,33.3853333 L82.8248276,46.5626667 L81.2398345,46.5626667 L70.7632552,34.8 L70.7632552,46.5626667 L69.2510897,46.5626667 L69.2510897,33.3853333 Z M95.6120276,41.724 L92.1004138,34.636 L88.5901241,41.724 L95.6120276,41.724 Z M91.1284966,33.3853333 L93.072331,33.3853333 L99.7883586,46.5626667 L98.006069,46.5626667 L96.3124966,43.1373333 L87.8697931,43.1373333 L86.1590069,46.5626667 L84.3952552,46.5626667 L91.1284966,33.3853333 Z M101.358786,33.3853333 L103.609821,33.3853333 L113.348855,44.224 L113.348855,33.3853333 L114.933848,33.3853333 L114.933848,46.5626667 L113.348855,46.5626667 L102.870952,34.8 L102.870952,46.5626667 L101.358786,46.5626667 L101.358786,33.3853333 Z M131.518676,43.0653333 C130.11509,45.8026667 127.683972,46.8906667 124.496772,46.8906667 C119.421352,46.8906667 117.025986,43.8253333 117.025986,40.0026667 C117.025986,35.4693333 120.068855,33.0573333 124.479559,33.0573333 C127.288055,33.0573333 130.150841,34.1453333 131.320055,36.828 L129.952221,37.464 C129.033269,35.3066667 126.999393,34.4013333 124.496772,34.4013333 C120.75211,34.4013333 118.648055,36.448 118.648055,40.2 C118.648055,43.2293333 120.680607,45.476 124.642428,45.476 C127.233766,45.476 129.033269,44.388 130.11509,42.3746667 L131.518676,43.0653333 Z M133.827972,46.5626667 L135.411641,46.5626667 L135.411641,33.3853333 L133.827972,33.3853333 L133.827972,46.5626667 Z M148.194869,41.724 L144.685903,34.636 L141.17429,41.724 L148.194869,41.724 Z M143.712662,33.3853333 L145.657821,33.3853333 L152.3712,46.5626667 L150.590234,46.5626667 L148.897986,43.1373333 L140.453959,43.1373333 L138.744497,46.5626667 L136.979421,46.5626667 L143.712662,33.3853333 Z M153.942952,33.3853333 L155.526621,33.3853333 L155.526621,45.148 L165.861517,45.148 L165.861517,46.5626667 L153.942952,46.5626667 L153.942952,33.3853333 Z"/>
    </g>
</svg>