<?xml version="1.0" standalone="no"?>
<!DOCTYPE svg PUBLIC "-//W3C//DTD SVG 20010904//EN"
 "http://www.w3.org/TR/2001/REC-SVG-20010904/DTD/svg10.dtd">
<svg version="1.0" xmlns="http://www.w3.org/2000/svg"
 width="512.000000pt" height="512.000000pt" viewBox="0 0 512.000000 512.000000"
 preserveAspectRatio="xMidYMid meet">
<metadata>
Created by potrace 1.11, written by Peter Selinger 2001-2013
</metadata>
<g transform="translate(0.000000,512.000000) scale(0.100000,-0.100000)"
fill="#000000" stroke="none">
<path d="M2220 4824 c-518 -44 -909 -123 -1327 -269 -164 -57 -405 -158 -487
-203 -58 -31 -67 -51 -161 -329 -326 -967 -322 -2038 11 -3013 97 -285 89
-272 192 -321 318 -151 710 -279 1094 -358 530 -109 1162 -126 1713 -45 452
66 1007 233 1356 407 l83 42 38 100 c181 472 282 956 309 1485 31 591 -67
1242 -274 1810 -83 231 -57 199 -230 276 -471 208 -951 337 -1492 399 -132 16
-710 29 -825 19z m635 -194 c396 -29 762 -99 1125 -215 152 -49 406 -147 500
-193 53 -26 55 -29 86 -109 120 -310 218 -725 261 -1106 21 -190 24 -719 5
-907 -36 -350 -108 -684 -221 -1026 -73 -219 -59 -202 -207 -266 -433 -189
-896 -308 -1414 -365 -218 -24 -714 -23 -935 1 -521 57 -992 181 -1440 378
l-100 44 -38 99 c-114 296 -204 676 -253 1076 -26 206 -26 772 -1 979 42 338
105 631 196 907 88 266 84 259 154 294 156 79 545 216 772 273 310 77 517 109
900 139 99 8 483 6 610 -3z"/>
<path d="M2236 4510 c-377 -25 -785 -104 -1148 -224 -177 -59 -443 -167 -463
-188 -23 -24 -113 -303 -164 -505 -93 -373 -126 -654 -126 -1073 1 -407 31
-665 121 -1030 47 -190 147 -506 168 -526 6 -6 76 -38 156 -72 388 -161 778
-262 1240 -319 209 -26 803 -26 1010 0 355 44 644 108 940 207 141 47 434 161
448 175 14 13 -145 245 -245 358 l-78 89 -265 88 c-457 152 -512 180 -680 350
l-104 105 -181 -1 c-131 0 -226 -6 -350 -23 -223 -31 -393 -31 -528 -1 -55 12
-182 48 -283 81 -199 65 -325 94 -448 105 -74 7 -79 6 -72 -11 16 -42 101
-168 162 -239 97 -114 178 -168 325 -220 41 -15 52 -25 102 -106 86 -136 85
-137 -103 -24 -229 137 -411 278 -592 459 -121 121 -153 164 -162 216 -6 35
-5 37 36 52 106 40 270 71 513 96 184 19 162 0 191 166 22 134 75 315 125 428
57 129 63 147 53 157 -5 5 -78 24 -161 41 -149 31 -152 32 -163 62 -21 63 -24
61 178 126 103 33 246 74 317 92 74 18 138 39 149 50 29 27 35 123 10 150 -42
47 -72 54 -209 53 -147 0 -294 -29 -465 -90 -55 -20 -98 -30 -103 -25 -11 11
59 64 155 118 37 21 68 43 68 48 0 27 -56 88 -108 118 -71 39 -50 47 47 18 50
-15 82 -33 118 -65 l50 -45 49 15 c27 8 72 18 99 22 l50 8 -2 37 c-3 51 -43
124 -105 192 -51 57 -52 58 -23 51 87 -21 228 -146 260 -230 16 -41 17 -42 83
-53 37 -6 74 -12 82 -14 21 -6 39 54 39 134 1 77 -21 151 -68 227 -17 27 -27
51 -22 54 13 8 106 -60 140 -102 47 -60 79 -138 91 -222 13 -87 7 -161 -21
-278 -12 -46 -19 -85 -17 -87 2 -2 81 10 177 26 95 17 176 28 179 24 11 -11
-73 -87 -162 -146 l-88 -60 -86 3 -85 3 -28 -105 c-37 -135 -69 -325 -69 -405
0 -118 46 -193 144 -236 49 -22 66 -23 411 -30 361 -7 482 -18 629 -55 32 -8
65 -13 72 -10 17 7 19 107 3 174 -16 64 -79 196 -123 257 -20 27 -32 51 -27
53 31 10 200 -123 276 -217 57 -71 122 -196 127 -245 3 -27 -2 -31 -62 -57
-36 -15 -69 -30 -73 -31 -5 -2 20 -47 56 -101 68 -101 102 -183 157 -373 69
-240 74 -247 352 -398 l87 -47 74 -117 c41 -64 96 -154 122 -200 27 -45 52
-85 56 -87 17 -11 116 331 159 550 68 343 85 515 84 880 0 332 -10 454 -60
750 -42 241 -122 543 -195 734 -30 78 -33 83 -82 107 -58 30 -241 102 -367
145 -312 108 -681 188 -1025 224 -181 19 -572 27 -749 15z"/>
</g>
</svg>
