<?xml version="1.0" standalone="no"?>
<!DOCTYPE svg PUBLIC "-//W3C//DTD SVG 20010904//EN"
 "http://www.w3.org/TR/2001/REC-SVG-20010904/DTD/svg10.dtd">
<svg version="1.0" xmlns="http://www.w3.org/2000/svg"
 width="558.000000pt" height="558.000000pt" viewBox="0 0 558.000000 558.000000"
 preserveAspectRatio="xMidYMid meet">
<metadata>
Created by potrace 1.11, written by Peter Selinger 2001-2013
</metadata>
<g transform="translate(0.000000,558.000000) scale(0.100000,-0.100000)"
fill="#000000" stroke="none">
<path d="M2525 5259 c-440 -17 -878 -90 -1300 -214 -221 -65 -356 -114 -585
-211 -258 -110 -246 -101 -292 -219 -138 -356 -254 -812 -302 -1195 -41 -322
-53 -783 -27 -1075 44 -501 156 -992 329 -1440 l39 -100 64 -34 c110 -59 385
-170 599 -241 1067 -356 2225 -368 3310 -34 215 67 551 198 708 278 47 24 48
25 91 142 216 578 322 1114 338 1714 18 681 -102 1368 -346 1991 l-41 106
-148 66 c-600 269 -1287 436 -1897 462 -270 11 -355 12 -540 4z m719 -224
c520 -50 1028 -177 1490 -370 224 -93 203 -77 248 -196 148 -399 245 -837 289
-1309 18 -186 15 -652 -5 -850 -42 -419 -120 -785 -245 -1150 -79 -232 -64
-210 -188 -265 -701 -307 -1440 -452 -2208 -431 -696 18 -1329 158 -1953 432
l-112 49 -21 55 c-149 389 -250 815 -301 1280 -17 156 -17 796 0 955 45 417
132 808 260 1170 l57 160 75 37 c269 134 755 288 1135 362 228 44 390 63 750
90 107 8 578 -4 729 -19z"/>
<path d="M2314 4905 c-563 -53 -1107 -194 -1576 -407 l-66 -30 -66 -199 c-331
-994 -329 -2061 5 -3038 28 -80 53 -154 56 -164 13 -44 500 -227 828 -312 419
-108 808 -157 1255 -157 524 -1 990 69 1486 221 188 58 584 211 584 227 0 22
-151 243 -236 344 -117 141 -100 131 -426 240 -304 101 -439 155 -536 212 -31
18 -112 89 -181 157 l-124 123 -221 -5 c-140 -3 -280 -13 -381 -26 -95 -13
-217 -22 -300 -22 -169 -1 -253 16 -523 102 -285 91 -455 129 -579 129 l-34 0
17 -32 c46 -88 146 -222 228 -303 98 -97 168 -141 279 -175 l65 -20 66 -106
c37 -59 64 -109 61 -113 -12 -11 -252 132 -408 243 -168 120 -254 193 -403
341 -155 154 -177 183 -187 247 l-6 38 79 25 c142 44 421 89 665 107 38 3 40
5 47 43 53 298 106 484 188 660 22 48 40 91 40 96 0 11 -49 24 -214 56 -149
30 -145 27 -160 99 l-7 31 188 61 c195 64 474 142 506 142 23 0 56 72 57 124
0 31 -7 45 -35 71 -93 89 -369 69 -724 -51 -56 -20 -106 -32 -110 -29 -10 11
61 67 158 124 68 41 88 57 83 70 -13 37 -58 84 -114 118 -32 20 -56 38 -54 41
7 6 104 -18 153 -39 23 -10 62 -36 86 -59 l45 -40 83 20 c46 11 96 20 112 20
24 0 27 4 27 33 0 50 -51 147 -115 215 -32 35 -55 65 -52 68 3 3 36 -9 74 -27
86 -42 189 -142 226 -220 l26 -55 68 -12 c37 -6 77 -14 89 -17 18 -6 22 -1 32
37 19 77 21 105 11 170 -9 59 -58 175 -95 226 -44 59 77 -8 141 -80 45 -50 91
-145 105 -217 21 -110 5 -287 -35 -402 l-15 -41 27 7 c67 16 377 65 382 59 10
-10 -102 -108 -194 -169 l-86 -57 -84 7 c-47 4 -88 7 -92 7 -12 0 -70 -221
-92 -353 -23 -133 -27 -262 -10 -322 18 -67 88 -131 173 -160 18 -6 198 -13
411 -17 393 -8 519 -19 689 -60 43 -11 82 -17 87 -14 15 9 10 157 -7 215 -21
71 -75 179 -130 257 -36 52 -40 62 -25 62 27 0 174 -111 247 -186 102 -105
179 -239 186 -323 3 -31 0 -34 -43 -51 -26 -10 -63 -26 -84 -34 l-37 -16 34
-38 c83 -92 146 -227 209 -447 52 -184 84 -258 125 -294 32 -28 145 -98 288
-178 79 -44 92 -60 252 -326 l102 -168 35 108 c97 297 159 584 204 943 25 209
26 832 0 1040 -27 219 -64 425 -113 624 -44 178 -156 531 -178 561 -15 21
-255 120 -454 189 -349 120 -680 194 -1082 242 -185 22 -782 28 -976 9z"/>
</g>
</svg>
